<?xml version="1.0" encoding="UTF-8"?>
<svg version="1.1" xmlns="http://www.w3.org/2000/svg" width="621" height="692">
<path d="M0 0 C10.37323176 9.83839125 19.6016441 20.20886073 27.23388672 32.35498047 C27.23388672 33.01498047 27.23388672 33.67498047 27.23388672 34.35498047 C27.90291016 34.29697266 28.57193359 34.23896484 29.26123047 34.17919922 C51.9040741 33.11544146 74.94289625 46.25865658 91.42138672 60.79248047 C93.03451281 62.30380734 94.63869323 63.82473786 96.23388672 65.35498047 C97.48298828 66.50933594 97.48298828 66.50933594 98.75732422 67.68701172 C112.11864324 80.41109861 120.73648954 96.32461455 126.60888672 113.66748047 C126.84760498 114.37155029 127.08632324 115.07562012 127.33227539 115.80102539 C130.91323794 126.96611693 131.60678303 137.79277765 131.60449219 149.43139648 C131.60883649 151.88906753 131.64518261 154.34489432 131.68310547 156.80224609 C131.79293594 171.93345422 129.33017615 186.2509013 123.04638672 200.10498047 C122.46546265 201.41728638 122.46546265 201.41728638 121.87280273 202.75610352 C116.14137686 215.35181736 108.59274054 229.88369706 95.30810547 235.72998047 C91.55451088 236.86100709 88.08913426 237.07605455 84.23388672 236.35498047 C81.17467677 234.71207142 78.98789498 233.23465678 76.73388672 230.60498047 C75.20037298 229.09863195 75.20037298 229.09863195 72.47216797 229.00732422 C68.30562717 229.4546368 66.96846823 230.83206309 63.92138672 233.66748047 C59.01428919 238.03853525 53.87589732 241.78578194 48.35888672 245.35498047 C47.64563232 245.82331299 46.93237793 246.29164551 46.19750977 246.77416992 C42.31074288 249.26000429 38.72568053 251.11586494 34.23388672 252.35498047 C34.51268677 253.20370728 34.51268677 253.20370728 34.79711914 254.06958008 C54.85141392 315.77747943 53.61449179 382.46664322 24.06201172 441.15576172 C19.19853447 450.36262333 13.27494003 458.8917184 7.23388672 467.35498047 C6.43217041 468.48323242 6.43217041 468.48323242 5.61425781 469.63427734 C-0.93947875 478.78935585 -7.94818536 487.25072716 -15.76611328 495.35498047 C-16.39001953 496.01884766 -17.01392578 496.68271484 -17.65673828 497.36669922 C-21.64951727 501.5180699 -26.02767151 505.00034814 -30.62939453 508.46044922 C-32.74705987 510.33808668 -33.72263887 511.75494201 -34.76611328 514.35498047 C-34.20537109 514.59345703 -33.64462891 514.83193359 -33.06689453 515.07763672 C-21.04817531 521.75016844 -13.51572035 535.62279824 -9.76611328 548.35498047 C-6.56617252 560.8880818 -9.06960652 573.13804068 -14.93017578 584.35888672 C-17.94691872 589.28195446 -21.66785874 593.31444783 -25.76611328 597.35498047 C-26.64783203 598.25216797 -26.64783203 598.25216797 -27.54736328 599.16748047 C-35.10297106 606.29541233 -45.30237836 608.80843044 -55.47705078 608.69873047 C-65.63125141 607.63748385 -75.19213633 603.44952016 -84.12548828 598.71435547 C-87.58608149 596.93286666 -91.09175004 595.62687544 -94.76611328 594.35498047 C-94.80736328 595.46873047 -94.84861328 596.58248047 -94.89111328 597.72998047 C-96.28064732 608.3955931 -105.27992278 617.7787801 -113.21533203 624.39794922 C-123.75056551 632.15465958 -134.71934393 635.46701003 -147.76611328 634.35498047 C-158.39670909 632.0090104 -166.90689836 626.88123824 -175.07861328 619.85498047 C-188.34589045 608.74269888 -202.84959177 607.14674093 -219.48876953 606.31982422 C-232.40494035 605.47987691 -240.44656483 601.17344064 -249.14111328 591.79248047 C-252.59810947 586.60698618 -253.02028932 581.73917631 -252.95361328 575.60498047 C-252.94394531 573.63271484 -252.94394531 573.63271484 -252.93408203 571.62060547 C-252.76611328 568.35498047 -252.76611328 568.35498047 -251.76611328 566.35498047 C-252.75740234 566.23896484 -253.74869141 566.12294922 -254.77001953 566.00341797 C-258.87959539 565.40854323 -262.76963569 564.28816382 -266.70361328 562.97998047 C-267.45924561 562.73103027 -268.21487793 562.48208008 -268.9934082 562.22558594 C-277.1648909 559.41088225 -284.93664753 555.73227805 -292.70532227 551.96289062 C-293.68057861 551.4967334 -294.65583496 551.03057617 -295.66064453 550.55029297 C-296.52536377 550.1276416 -297.39008301 549.70499023 -298.28100586 549.26953125 C-301.01838798 548.26214021 -302.87567788 547.96979033 -305.76611328 548.35498047 C-307.72994376 550.53905362 -309.27762747 552.5570941 -310.89111328 554.97998047 C-311.8604205 556.36552931 -312.83182792 557.74961093 -313.80517578 559.13232422 C-314.29663086 559.83856934 -314.78808594 560.54481445 -315.29443359 561.27246094 C-322.35647468 571.26569425 -330.29286528 580.53865369 -338.76611328 589.35498047 C-339.3387793 589.95487793 -339.91144531 590.55477539 -340.50146484 591.17285156 C-359.54724685 611.02445563 -385.7748368 632.70264933 -414.67236328 633.55810547 C-433.76107737 633.82407898 -452.1926012 631.77100317 -466.93017578 618.39013672 C-474.64331475 610.40256022 -478.21245682 601.76726403 -478.32861328 590.72998047 C-477.98725448 573.06854165 -465.86182253 560.99355404 -454.76611328 548.35498047 C-453.82807861 547.28014404 -453.82807861 547.28014404 -452.87109375 546.18359375 C-446.46107162 538.93996163 -439.64331845 532.14896967 -432.76611328 525.35498047 C-430.51323819 523.12869171 -428.26371638 520.89909003 -426.01611328 518.66748047 C-425.50266357 518.1623291 -424.98921387 517.65717773 -424.46020508 517.13671875 C-421.77307295 514.5041189 -421.77307295 514.5041189 -419.76611328 511.35498047 C-420.50861328 511.16935547 -421.25111328 510.98373047 -422.01611328 510.79248047 C-425.76606981 508.83227592 -427.18930863 506.21196833 -428.76611328 502.35498047 C-429.55462943 498.97539583 -429.90292339 495.81687067 -429.94311523 492.35058594 C-429.95575912 491.37605469 -429.96840302 490.40152344 -429.98143005 489.39746094 C-429.99279747 487.82569092 -429.99279747 487.82569092 -430.00439453 486.22216797 C-430.01418839 485.12549805 -430.02398224 484.02882813 -430.03407288 482.89892578 C-430.34885959 438.5004834 -430.34885959 438.5004834 -425.76611328 417.35498047 C-425.32464396 415.127386 -424.88459137 412.89951039 -424.44580078 410.67138672 C-410.35920965 341.52573027 -375.56024376 272.51945362 -317.55126953 229.93310547 C-315.49682135 228.38264191 -315.49682135 228.38264191 -314.76611328 225.35498047 C-315.02308344 223.31175964 -315.02308344 223.31175964 -315.62158203 221.08544922 C-315.83008789 220.21122314 -316.03859375 219.33699707 -316.25341797 218.4362793 C-316.48448242 217.48132568 -316.71554687 216.52637207 -316.95361328 215.54248047 C-319.1557039 205.97666676 -320.74374638 196.39532028 -322.01611328 186.66748047 C-322.17877686 185.42828857 -322.34144043 184.18909668 -322.5090332 182.91235352 C-329.25520622 129.6766381 -321.5604835 78.86705045 -288.26464844 35.27783203 C-254.43476616 -8.13112086 -205.89705523 -38.67700361 -150.76611328 -45.64501953 C-97.28014205 -51.33741478 -39.99581822 -37.25350057 0 0 Z " fill="#86B271" transform="translate(483.76611328125,52.64501953125)"/>
<path d="M0 0 C10.37323176 9.83839125 19.6016441 20.20886073 27.23388672 32.35498047 C27.23388672 33.01498047 27.23388672 33.67498047 27.23388672 34.35498047 C27.90291016 34.29697266 28.57193359 34.23896484 29.26123047 34.17919922 C51.9040741 33.11544146 74.94289625 46.25865658 91.42138672 60.79248047 C93.03451281 62.30380734 94.63869323 63.82473786 96.23388672 65.35498047 C97.48298828 66.50933594 97.48298828 66.50933594 98.75732422 67.68701172 C112.11864324 80.41109861 120.73648954 96.32461455 126.60888672 113.66748047 C126.84760498 114.37155029 127.08632324 115.07562012 127.33227539 115.80102539 C130.91323794 126.96611693 131.60678303 137.79277765 131.60449219 149.43139648 C131.60883649 151.88906753 131.64518261 154.34489432 131.68310547 156.80224609 C131.79293594 171.93345422 129.33017615 186.2509013 123.04638672 200.10498047 C122.46546265 201.41728638 122.46546265 201.41728638 121.87280273 202.75610352 C116.14137686 215.35181736 108.59274054 229.88369706 95.30810547 235.72998047 C91.55451088 236.86100709 88.08913426 237.07605455 84.23388672 236.35498047 C81.17467677 234.71207142 78.98789498 233.23465678 76.73388672 230.60498047 C75.20037298 229.09863195 75.20037298 229.09863195 72.47216797 229.00732422 C68.30562717 229.4546368 66.96846823 230.83206309 63.92138672 233.66748047 C59.01428919 238.03853525 53.87589732 241.78578194 48.35888672 245.35498047 C47.64563232 245.82331299 46.93237793 246.29164551 46.19750977 246.77416992 C42.31074288 249.26000429 38.72568053 251.11586494 34.23388672 252.35498047 C34.51268677 253.20370728 34.51268677 253.20370728 34.79711914 254.06958008 C54.85141392 315.77747943 53.61449179 382.46664322 24.06201172 441.15576172 C19.19853447 450.36262333 13.27494003 458.8917184 7.23388672 467.35498047 C6.43217041 468.48323242 6.43217041 468.48323242 5.61425781 469.63427734 C-0.93947875 478.78935585 -7.94818536 487.25072716 -15.76611328 495.35498047 C-16.39001953 496.01884766 -17.01392578 496.68271484 -17.65673828 497.36669922 C-21.64951727 501.5180699 -26.02767151 505.00034814 -30.62939453 508.46044922 C-32.74705987 510.33808668 -33.72263887 511.75494201 -34.76611328 514.35498047 C-34.20537109 514.59345703 -33.64462891 514.83193359 -33.06689453 515.07763672 C-21.04817531 521.75016844 -13.51572035 535.62279824 -9.76611328 548.35498047 C-6.56617252 560.8880818 -9.06960652 573.13804068 -14.93017578 584.35888672 C-17.94691872 589.28195446 -21.66785874 593.31444783 -25.76611328 597.35498047 C-26.64783203 598.25216797 -26.64783203 598.25216797 -27.54736328 599.16748047 C-35.10297106 606.29541233 -45.30237836 608.80843044 -55.47705078 608.69873047 C-65.63125141 607.63748385 -75.19213633 603.44952016 -84.12548828 598.71435547 C-87.58608149 596.93286666 -91.09175004 595.62687544 -94.76611328 594.35498047 C-94.80736328 595.46873047 -94.84861328 596.58248047 -94.89111328 597.72998047 C-96.28064732 608.3955931 -105.27992278 617.7787801 -113.21533203 624.39794922 C-123.75056551 632.15465958 -134.71934393 635.46701003 -147.76611328 634.35498047 C-158.39670909 632.0090104 -166.90689836 626.88123824 -175.07861328 619.85498047 C-188.34589045 608.74269888 -202.84959177 607.14674093 -219.48876953 606.31982422 C-232.40494035 605.47987691 -240.44656483 601.17344064 -249.14111328 591.79248047 C-252.59810947 586.60698618 -253.02028932 581.73917631 -252.95361328 575.60498047 C-252.94394531 573.63271484 -252.94394531 573.63271484 -252.93408203 571.62060547 C-252.76611328 568.35498047 -252.76611328 568.35498047 -251.76611328 566.35498047 C-252.75740234 566.23896484 -253.74869141 566.12294922 -254.77001953 566.00341797 C-258.87959539 565.40854323 -262.76963569 564.28816382 -266.70361328 562.97998047 C-267.45924561 562.73103027 -268.21487793 562.48208008 -268.9934082 562.22558594 C-277.1648909 559.41088225 -284.93664753 555.73227805 -292.70532227 551.96289062 C-293.68057861 551.4967334 -294.65583496 551.03057617 -295.66064453 550.55029297 C-296.52536377 550.1276416 -297.39008301 549.70499023 -298.28100586 549.26953125 C-301.01838798 548.26214021 -302.87567788 547.96979033 -305.76611328 548.35498047 C-307.72994376 550.53905362 -309.27762747 552.5570941 -310.89111328 554.97998047 C-311.8604205 556.36552931 -312.83182792 557.74961093 -313.80517578 559.13232422 C-314.29663086 559.83856934 -314.78808594 560.54481445 -315.29443359 561.27246094 C-322.35647468 571.26569425 -330.29286528 580.53865369 -338.76611328 589.35498047 C-339.3387793 589.95487793 -339.91144531 590.55477539 -340.50146484 591.17285156 C-359.54724685 611.02445563 -385.7748368 632.70264933 -414.67236328 633.55810547 C-433.76107737 633.82407898 -452.1926012 631.77100317 -466.93017578 618.39013672 C-474.64331475 610.40256022 -478.21245682 601.76726403 -478.32861328 590.72998047 C-477.98725448 573.06854165 -465.86182253 560.99355404 -454.76611328 548.35498047 C-453.82807861 547.28014404 -453.82807861 547.28014404 -452.87109375 546.18359375 C-446.46107162 538.93996163 -439.64331845 532.14896967 -432.76611328 525.35498047 C-430.51323819 523.12869171 -428.26371638 520.89909003 -426.01611328 518.66748047 C-425.50266357 518.1623291 -424.98921387 517.65717773 -424.46020508 517.13671875 C-421.77307295 514.5041189 -421.77307295 514.5041189 -419.76611328 511.35498047 C-420.50861328 511.16935547 -421.25111328 510.98373047 -422.01611328 510.79248047 C-425.76606981 508.83227592 -427.18930863 506.21196833 -428.76611328 502.35498047 C-429.55462943 498.97539583 -429.90292339 495.81687067 -429.94311523 492.35058594 C-429.95575912 491.37605469 -429.96840302 490.40152344 -429.98143005 489.39746094 C-429.99279747 487.82569092 -429.99279747 487.82569092 -430.00439453 486.22216797 C-430.01418839 485.12549805 -430.02398224 484.02882813 -430.03407288 482.89892578 C-430.34885959 438.5004834 -430.34885959 438.5004834 -425.76611328 417.35498047 C-425.32464396 415.127386 -424.88459137 412.89951039 -424.44580078 410.67138672 C-410.35920965 341.52573027 -375.56024376 272.51945362 -317.55126953 229.93310547 C-315.49682135 228.38264191 -315.49682135 228.38264191 -314.76611328 225.35498047 C-315.02308344 223.31175964 -315.02308344 223.31175964 -315.62158203 221.08544922 C-315.83008789 220.21122314 -316.03859375 219.33699707 -316.25341797 218.4362793 C-316.48448242 217.48132568 -316.71554687 216.52637207 -316.95361328 215.54248047 C-319.1557039 205.97666676 -320.74374638 196.39532028 -322.01611328 186.66748047 C-322.17877686 185.42828857 -322.34144043 184.18909668 -322.5090332 182.91235352 C-329.25520622 129.6766381 -321.5604835 78.86705045 -288.26464844 35.27783203 C-254.43476616 -8.13112086 -205.89705523 -38.67700361 -150.76611328 -45.64501953 C-97.28014205 -51.33741478 -39.99581822 -37.25350057 0 0 Z M-258.8203125 42.14746094 C-283.2586257 69.87283459 -298.27391465 106.818591 -298.07861328 143.91748047 C-298.07297363 145.08093994 -298.06733398 146.24439941 -298.06152344 147.44311523 C-297.70909096 173.4446066 -293.38587837 199.68640784 -288.19726562 225.14624023 C-287.69049391 227.74236916 -287.56067735 230.21084586 -287.51611328 232.85498047 C-287.49033203 233.77279297 -287.46455078 234.69060547 -287.43798828 235.63623047 C-288.15153156 241.54844619 -291.81394795 244.51981576 -296.26611328 248.10498047 C-296.7965625 248.53689697 -297.32701172 248.96881348 -297.87353516 249.41381836 C-299.49843083 250.7351329 -301.13107346 252.04624903 -302.76611328 253.35498047 C-310.71663477 259.74852483 -318.34435736 266.36060094 -325.76611328 273.35498047 C-326.49830078 274.04462891 -327.23048828 274.73427734 -327.98486328 275.44482422 C-333.3964107 280.69531368 -338.08920698 286.45019074 -342.76611328 292.35498047 C-343.53697266 293.29728516 -344.30783203 294.23958984 -345.10205078 295.21044922 C-367.1301893 322.76344449 -382.16756716 355.57326083 -391.76611328 389.35498047 C-392.13663818 390.64009521 -392.13663818 390.64009521 -392.51464844 391.95117188 C-398.7466906 413.81265481 -403.95096598 436.74450008 -403.89892578 459.56982422 C-403.89988251 460.50677628 -403.90083923 461.44372833 -403.90182495 462.40907288 C-403.90250067 464.37126737 -403.90068918 466.33346419 -403.89648438 468.2956543 C-403.8910849 471.30831841 -403.89647156 474.3208363 -403.90283203 477.33349609 C-403.90217197 479.2456058 -403.9008923 481.15771541 -403.89892578 483.06982422 C-403.90095001 483.97184067 -403.90297424 484.87385712 -403.90505981 485.8032074 C-403.90190765 486.63489944 -403.89875549 487.46659149 -403.89550781 488.32348633 C-403.89471222 489.05578964 -403.89391663 489.78809296 -403.89309692 490.54258728 C-403.87548478 492.45590913 -403.87548478 492.45590913 -402.76611328 494.35498047 C-402.21826172 494.28537109 -401.67041016 494.21576172 -401.10595703 494.14404297 C-393.54675662 493.62780489 -387.95409984 495.9722725 -381.18408203 498.94482422 C-376.23425703 500.98698059 -371.95234647 501.48204895 -366.61816406 501.51611328 C-364.79069138 501.5305246 -364.79069138 501.5305246 -362.92630005 501.54522705 C-361.61789154 501.54947693 -360.30948303 501.55372681 -358.96142578 501.55810547 C-357.95538111 501.56234653 -357.95538111 501.56234653 -356.9290123 501.56667328 C-353.3807308 501.581624 -349.83248954 501.59087984 -346.28417969 501.59521484 C-342.63374329 501.60069811 -338.98368012 501.62473446 -335.33336067 501.6531868 C-332.51251166 501.67187877 -329.69175149 501.67702221 -326.87084579 501.67855072 C-324.87512636 501.68301882 -322.87945462 501.70162975 -320.88381958 501.72052002 C-314.28800476 501.70435607 -309.60657465 501.41691157 -303.76611328 498.35498047 C-301.30586048 497.58130032 -298.83197609 496.85002796 -296.34814453 496.15576172 C-294.92455278 495.75222872 -293.50113801 495.34807095 -292.07788086 494.94335938 C-291.34308502 494.73559875 -290.60828918 494.52783813 -289.85122681 494.31378174 C-252.22210852 483.61255751 -210.80127263 466.33904407 -185.29345703 435.21826172 C-183.76611328 433.35498047 -183.76611328 433.35498047 -182.14501953 431.64794922 C-169.42383811 418.16290933 -161.25113007 400.32164838 -155.39111328 382.97998047 C-155.04483887 381.95710938 -154.69856445 380.93423828 -154.34179688 379.88037109 C-147.05118382 357.52979994 -148.43117773 330.4741966 -158.76611328 309.35498047 C-167.9692938 291.31674664 -183.46689533 276.38461754 -202.81982422 269.63916016 C-207.0868696 268.32451437 -211.39887075 267.28630809 -215.76611328 266.35498047 C-216.91829346 266.09019897 -216.91829346 266.09019897 -218.09375 265.82006836 C-221.032598 265.30860249 -223.78347894 265.22543023 -226.76611328 265.22216797 C-228.46767578 265.22023438 -228.46767578 265.22023438 -230.20361328 265.21826172 C-231.96705078 265.2240625 -231.96705078 265.2240625 -233.76611328 265.22998047 C-234.94173828 265.22611328 -236.11736328 265.22224609 -237.32861328 265.21826172 C-238.46298828 265.21955078 -239.59736328 265.22083984 -240.76611328 265.22216797 C-242.31298828 265.22385986 -242.31298828 265.22385986 -243.89111328 265.22558594 C-246.62831021 265.34877839 -249.09616863 265.76673082 -251.76611328 266.35498047 C-253.6371885 266.51483423 -255.51386476 266.61835138 -257.39111328 266.66748047 C-258.33212891 266.70486328 -259.27314453 266.74224609 -260.24267578 266.78076172 C-262.76611328 266.35498047 -262.76611328 266.35498047 -264.58251953 264.58544922 C-266.41149291 261.13877001 -266.2203814 258.16143402 -265.76611328 254.35498047 C-264.59598102 250.93459387 -263.89300605 250.43957565 -260.76611328 248.35498047 C-258.40760469 247.76393935 -256.02852576 247.25308227 -253.64111328 246.79248047 C-252.38041016 246.54369141 -251.11970703 246.29490234 -249.82080078 246.03857422 C-228.86582028 242.32021592 -208.32184383 243.65802279 -188.76611328 252.35498047 C-187.29078125 253.00080078 -187.29078125 253.00080078 -185.78564453 253.65966797 C-161.80251469 264.87502856 -144.22103707 285.19784984 -135.00830078 309.91748047 C-130.35284244 323.15079858 -128.39409179 335.3315907 -128.45361328 349.41748047 C-128.4563475 350.44169601 -128.4563475 350.44169601 -128.45913696 351.48660278 C-128.64731421 393.41212621 -146.92923571 431.45612157 -175.76611328 461.35498047 C-176.68617534 462.3490404 -177.60543759 463.34384114 -178.52392578 464.33935547 C-202.15811325 489.49806624 -237.0618787 503.45549085 -268.76611328 515.35498047 C-270.14669922 515.87705078 -270.14669922 515.87705078 -271.55517578 516.40966797 C-277.3575697 518.49116166 -277.3575697 518.49116166 -280.76611328 517.35498047 C-280.76611328 516.69498047 -280.76611328 516.03498047 -280.76611328 515.35498047 C-282.41611328 515.68498047 -284.06611328 516.01498047 -285.76611328 516.35498047 C-285.76611328 517.01498047 -285.76611328 517.67498047 -285.76611328 518.35498047 C-284.11611328 518.35498047 -282.46611328 518.35498047 -280.76611328 518.35498047 C-280.76611328 519.01498047 -280.76611328 519.67498047 -280.76611328 520.35498047 C-281.85923828 520.16935547 -282.95236328 519.98373047 -284.07861328 519.79248047 C-287.70235461 519.09717367 -287.70235461 519.09717367 -290.76611328 520.35498047 C-289.74350762 523.73860215 -288.59486776 524.45568915 -285.48486328 526.28466797 C-284.08612138 526.94914622 -282.67920482 527.59659074 -281.26611328 528.22998047 C-280.51797363 528.57367676 -279.76983398 528.91737305 -278.99902344 529.27148438 C-258.37728679 539.04399815 -258.37728679 539.04399815 -236.76611328 540.35498047 C-232.90437128 537.82610297 -229.6009864 534.5943823 -226.21923828 531.47216797 C-212.97293853 519.25776228 -195.93500838 512.74970402 -178.07861328 512.91748047 C-176.9288501 512.92650391 -175.77908691 512.93552734 -174.59448242 512.94482422 C-158.45537183 513.2726837 -143.25040085 518.36545542 -129.76611328 527.35498047 C-124.55047839 527.78435477 -120.24721147 526.88342124 -115.39111328 525.10498047 C-114.67560303 524.8468457 -113.96009277 524.58871094 -113.22290039 524.32275391 C-68.19774865 507.41766285 -29.51390427 480.7153649 -5.76611328 438.35498047 C-5.3586084 437.63568359 -4.95110352 436.91638672 -4.53125 436.17529297 C13.14352785 404.72928575 21.69003522 370.96097051 21.60888672 334.97998047 C21.60856949 333.67320343 21.60856949 333.67320343 21.60824585 332.34002686 C21.76566762 295.43162883 21.76566762 295.43162883 7.10888672 263.04248047 C0.39112733 256.73925126 0.39112733 256.73925126 -6.69189453 250.85888672 C-14.37430986 244.84582106 -17.96687654 236.21525332 -21.95361328 227.54248047 C-22.28675537 226.8325293 -22.61989746 226.12257813 -22.96313477 225.39111328 C-27.78600588 214.5593595 -29.35338785 202.94609846 -30.45361328 191.22998047 C-30.51615295 190.56411926 -30.57869263 189.89825806 -30.64312744 189.21221924 C-33.77524239 154.75090055 -33.64729627 118.19042578 -25.76611328 84.35498047 C-25.53021484 83.33919922 -25.29431641 82.32341797 -25.05126953 81.27685547 C-21.30352379 66.44793717 -13.75933196 53.03474689 -2.76611328 42.35498047 C-2.10611328 42.02498047 -1.44611328 41.69498047 -0.76611328 41.35498047 C-3.20794635 35.78454879 -7.65502184 31.73761866 -11.76611328 27.35498047 C-12.53310547 26.52224609 -13.30009766 25.68951172 -14.09033203 24.83154297 C-20.65017821 17.95725788 -27.81896621 12.49774161 -35.76611328 7.35498047 C-36.6584668 6.77683594 -36.6584668 6.77683594 -37.56884766 6.18701172 C-53.89746712 -4.15738937 -72.86783919 -10.85003143 -91.76611328 -14.64501953 C-92.4212793 -14.79165039 -93.07644531 -14.93828125 -93.75146484 -15.08935547 C-104.96762255 -17.56939034 -116.13540865 -17.93386565 -127.57861328 -17.95751953 C-128.62455154 -17.96289734 -128.62455154 -17.96289734 -129.69161987 -17.96838379 C-179.2359775 -18.10542184 -225.64655019 6.09666792 -258.8203125 42.14746094 Z " fill="#304450" transform="translate(483.76611328125,52.64501953125)"/>
<path d="M0 0 C0.92192139 0.00821777 1.84384277 0.01643555 2.79370117 0.02490234 C26.58737339 0.41458475 45.75704289 9.79944503 62.625 26.25 C63.29402344 26.84554687 63.96304688 27.44109375 64.65234375 28.0546875 C71.82541309 34.59340377 80.20493191 46.38279984 80.8046875 56.1875 C80.70414063 57.198125 80.60359375 58.20875 80.5 59.25 C80.38398438 60.45527344 80.26796875 61.66054687 80.1484375 62.90234375 C79.41084457 69.23510593 78.55945876 75.55431916 77.71679688 81.8737793 C76.49457907 91.07729009 75.62688579 100.13257363 75.59375 109.42578125 C75.38297045 132.3909485 75.38297045 132.3909485 67.625 140.25 C66.59489269 141.39191248 65.56637133 142.53525675 64.5390625 143.6796875 C48.7456401 160.76371127 28.64772546 170.7729137 5.2890625 172.49609375 C-19.05405992 172.99710232 -40.48797369 164.54540677 -58.375 148.25 C-73.93997504 132.90257203 -83.47235653 111.13590263 -83.7043457 89.25952148 C-83.69878662 88.34887939 -83.69322754 87.4382373 -83.6875 86.5 C-83.68258545 85.53843994 -83.6776709 84.57687988 -83.67260742 83.58618164 C-83.31306523 61.60616898 -74.40975253 41.24791637 -59.375 25.25 C-43.18231069 9.77034105 -22.62857362 -0.24698656 0 0 Z " fill="#F7EDD3" transform="translate(376.375,79.75)"/>
<path d="M0 0 C1.11375 0.39316406 2.2275 0.78632812 3.375 1.19140625 C4.40625 1.55363281 5.4375 1.91585937 6.5 2.2890625 C28.00785352 10.55054269 43.61493532 26.90694061 53.05053711 47.58251953 C58.45440809 59.97878412 60.55549188 71.26384306 60.5625 84.69140625 C60.57474609 85.89539063 60.58699219 87.099375 60.59960938 88.33984375 C60.61799747 99.74046151 59.36733518 110.57984138 55.625 121.37890625 C55.3662207 122.14066162 55.10744141 122.90241699 54.84082031 123.68725586 C49.5801309 138.5888408 49.5801309 138.5888408 44.375 141.19140625 C43.9625 139.99515625 43.55 138.79890625 43.125 137.56640625 C38.76367366 126.07754195 30.77426503 119.65915897 19.890625 114.69921875 C10.37888433 110.61973886 1.89443788 109.93314546 -8.35498047 109.59521484 C-20.63585869 109.13851382 -31.50873603 106.5935493 -42.625 101.19140625 C-43.38425781 100.88074219 -44.14351563 100.57007813 -44.92578125 100.25 C-47.18704267 99.09444557 -48.18815604 98.29419928 -49.625 96.19140625 C-49.91992188 93.40991211 -49.91992188 93.40991211 -49.84375 90.03125 C-49.81829102 88.77626709 -49.79283203 87.52128418 -49.76660156 86.22827148 C-49.72151666 84.88257719 -49.67429321 83.53695296 -49.625 82.19140625 C-49.58084961 80.87922119 -49.53669922 79.56703613 -49.49121094 78.21508789 C-47.20086792 18.10314194 -47.20086792 18.10314194 -31.625 2.19140625 C-22.47249931 -5.92103755 -10.98106212 -3.51737146 0 0 Z " fill="#FAA44C" transform="translate(527.625,116.80859375)"/>
<path d="M0 0 C0.98355469 0.43054688 1.96710938 0.86109375 2.98046875 1.3046875 C27.30532398 12.67985098 45.41215225 33.48620756 54.7578125 58.5625 C59.41327084 71.79581812 61.37202149 83.97661023 61.3125 98.0625 C61.31067719 98.74531036 61.30885437 99.42812073 61.30697632 100.13162231 C61.1236914 140.96714451 43.6960345 179.31951216 15.42724609 208.51708984 C13.93898915 210.06339034 12.47984429 211.63435012 11.01953125 213.20703125 C-8.91940663 234.31995571 -35.62493814 246.54435723 -61.98632812 257.71826172 C-64.65312368 258.85247078 -67.30335949 260.01820657 -69.953125 261.19140625 C-80.618868 265.74989911 -80.618868 265.74989911 -86.25 263.8125 C-87.21679688 263.29623047 -87.21679688 263.29623047 -88.203125 262.76953125 C-90.50002983 261.78585679 -91.68725609 262.19667966 -94 263 C-94.33 262.01 -94.66 261.02 -95 260 C-95.5775 259.87625 -96.155 259.7525 -96.75 259.625 C-100.03846907 258.71153637 -101.60941422 256.39058578 -104 254 C-109.51180621 250.23583966 -115.52726369 250.30373682 -122 250 C-121 248 -121 248 -117.53198242 246.79833984 C-115.9753138 246.34502239 -114.41626257 245.89984131 -112.85546875 245.4609375 C-111.13849698 244.96256165 -109.42162241 244.46385081 -107.70483398 243.96484375 C-106.80320526 243.70558105 -105.90157654 243.44631836 -104.97262573 243.17919922 C-66.60477576 232.10056294 -23.77454885 215.78136231 2.4375 183.8984375 C3.45753 182.65910106 4.51961289 181.45290758 5.625 180.2890625 C18.34397786 166.80459061 26.5155906 148.96487046 32.375 131.625 C32.72127441 130.60212891 33.06754883 129.57925781 33.42431641 128.52539062 C40.71492946 106.17481947 39.33493555 79.11921613 29 58 C18.90097713 38.20591518 2.05233917 24.70938352 -18.88671875 17.61328125 C-32.4889135 13.56406813 -49.15776657 13.00814604 -63 16 C-72.70512319 16.96362925 -72.70512319 16.96362925 -76.6875 14 C-78.36977248 10.15480577 -78.70249142 7.13131858 -78 3 C-76.36312815 -0.58552881 -75.31027417 -1.79315055 -72 -4 C-69.64149141 -4.59104112 -67.26241248 -5.1018982 -64.875 -5.5625 C-63.61429688 -5.81128906 -62.35359375 -6.06007813 -61.0546875 -6.31640625 C-40.099707 -10.03476455 -19.55573055 -8.69695768 0 0 Z " fill="#598860" transform="translate(295,304)"/>
<path d="M0 0 C0.88147705 0.00757324 1.7629541 0.01514648 2.67114258 0.02294922 C14.22843106 0.3147838 23.55303827 4.36158638 32.08984375 12.1796875 C41.83806473 22.46118096 44.76557401 33.8215477 44.52734375 47.484375 C43.96335765 59.75633811 37.6607861 69.44420333 28.9375 77.6875 C17.64783371 86.87795397 4.08715878 87.66163359 -9.8125 86.4375 C-21.01138062 83.96892954 -30.07428671 75.96609263 -36.46508789 66.63452148 C-40.94715877 59.32628524 -42.56697845 52.19150494 -42.5 43.6875 C-42.49347412 42.72811523 -42.48694824 41.76873047 -42.48022461 40.78027344 C-42.06431957 28.37608813 -36.65008085 19.36279546 -28.0703125 10.4921875 C-19.90116491 3.05798053 -10.95128505 -0.13180456 0 0 Z " fill="#314450" transform="translate(377.8125,122.5625)"/>
<path d="M0 0 C1.71626317 0.49407576 3.42503637 1.0149657 5.125 1.5625 C23.24575396 6.06187088 42.59427859 4.68012665 61.125 4.5625 C59.8533392 8.0431151 58.38807105 10.84654486 56.18359375 13.8203125 C55.60528809 14.60462646 55.02698242 15.38894043 54.43115234 16.19702148 C53.50616943 17.42980835 53.50616943 17.42980835 52.5625 18.6875 C51.9226416 19.54351807 51.2827832 20.39953613 50.62353516 21.28149414 C48.79769333 23.71387352 46.96186178 26.13844033 45.125 28.5625 C44.02478516 30.04169922 44.02478516 30.04169922 42.90234375 31.55078125 C29.31616161 49.04264203 12.55288022 64.91445851 -7.1875 75.125 C-7.80915039 75.44823242 -8.43080078 75.77146484 -9.07128906 76.10449219 C-17.62162485 80.2513375 -26.49385162 80.90784716 -35.875 80.875 C-36.79539062 80.89111328 -37.71578125 80.90722656 -38.6640625 80.92382812 C-45.98220162 80.92898174 -53.57302382 80.22018815 -59.4375 75.5 C-62.85281601 70.89674799 -62.60326224 66.10738778 -61.875 60.5625 C-59.16845044 53.44844682 -53.99451391 48.310596 -48.53515625 43.1796875 C-46.51340818 41.19059615 -44.6997664 39.22477165 -42.8671875 37.07421875 C-38.07369466 31.53253351 -32.86575004 26.40384662 -27.67797852 21.23510742 C-25.941064 19.503553 -24.20956111 17.76671641 -22.47851562 16.02929688 C-19.30172529 12.84837944 -16.096643 9.69792015 -12.875 6.5625 C-12.07416992 5.77641357 -11.27333984 4.99032715 -10.44824219 4.18041992 C-9.76020508 3.53564697 -9.07216797 2.89087402 -8.36328125 2.2265625 C-7.79520752 1.68854004 -7.22713379 1.15051758 -6.6418457 0.59619141 C-4.22822761 -0.81589357 -2.70602755 -0.49064267 0 0 Z " fill="#FAA44C" transform="translate(95.875,577.4375)"/>
<path d="M0 0 C8.573389 6.41062944 15.76035893 13.75700797 20.05957031 23.67919922 C21.32321128 32.56680736 20.41805265 40.35504246 15.05957031 47.67919922 C11.38598111 51.77994996 7.56852032 54.66735126 2.05957031 55.67919922 C-7.57484846 55.84249445 -14.57430512 49.74024381 -21.62792969 43.74169922 C-37.30276423 30.93269293 -55.6581645 27.88333142 -75.31347656 27.07373047 C-76.12494141 27.03634766 -76.93640625 26.99896484 -77.77246094 26.96044922 C-78.50182861 26.93015625 -79.23119629 26.89986328 -79.98266602 26.86865234 C-81.94042969 26.67919922 -81.94042969 26.67919922 -84.94042969 25.67919922 C-84.11181623 13.66430416 -75.57901258 6.32111838 -66.94042969 -1.32080078 C-63.42521132 -4.0251693 -59.87910776 -6.28734373 -55.94042969 -8.32080078 C-55.26367188 -8.67787109 -54.58691406 -9.03494141 -53.88964844 -9.40283203 C-36.91216702 -16.62238238 -14.44349027 -9.83131383 0 0 Z " fill="#FAA44C" transform="translate(342.9404296875,604.32080078125)"/>
<path d="M0 0 C4.07859804 0.15994502 7.17966844 0.76111055 10.5 3.125 C13 6 13 6 13.1875 9.0625 C12.73046875 10.87890625 12.73046875 10.87890625 12 13 C11.70738281 13.85464844 11.41476563 14.70929688 11.11328125 15.58984375 C4.092393 33.94269197 -7.72220297 49.12986377 -22.546875 61.82421875 C-24.55556424 63.60581096 -26.50942583 65.41841409 -28.453125 67.26953125 C-29.08661865 67.87071777 -29.7201123 68.4719043 -30.37280273 69.09130859 C-31.62211905 70.28039984 -32.8668112 71.47437813 -34.10571289 72.67431641 C-43.64211269 81.72845964 -54.43271837 88.14906878 -65.9375 94.3125 C-67.89246659 95.36647568 -69.84614246 96.42272466 -71.79798889 97.48246765 C-73.54892104 98.43218413 -75.30352547 99.37512123 -77.05834961 100.31762695 C-79.54766369 101.74130222 -81.74230421 103.24557359 -84 105 C-84.99 105.495 -84.99 105.495 -86 106 C-88.3739001 105.07714634 -90.6769163 104.09946411 -93 103.0625 C-99.13974058 100.43761873 -104.25086115 99.14246236 -111 100 C-112.20029908 97.59940183 -112.11459743 96.10639351 -112.09765625 93.4296875 C-112.09443359 92.53378906 -112.09121094 91.63789062 -112.08789062 90.71484375 C-112.07951172 89.77769531 -112.07113281 88.84054687 -112.0625 87.875 C-112.05798828 86.93011719 -112.05347656 85.98523438 -112.04882812 85.01171875 C-112.03702357 82.67441613 -112.02055759 80.33723939 -112 78 C-107.65344662 76.67218756 -103.6588649 75.77550742 -99.125 75.3125 C-73.33630816 71.41764036 -51.42996568 52.33820291 -33.15625 34.9453125 C-31.11691521 33.00806972 -29.03339156 31.18689622 -26.84375 29.421875 C-24.16197551 27.13794617 -22.14671654 24.90361294 -20 22.125 C-13.80699233 14.36253148 -7.02230324 7.02230324 0 0 Z " fill="#598960" transform="translate(192,447)"/>
<path d="M0 0 C9.60433203 5.32629623 18.49374303 13.56986292 21.6875 24.3125 C22.57058291 31.907013 22.39917991 37.50056645 18 44 C15.45484985 46.85553431 13.17889083 48.88073945 10 51 C3.01628972 51.11836797 -2.45823037 48.65860173 -8.6940918 45.80224609 C-13.39128774 43.66193189 -18.09799933 41.80438055 -23 40.1875 C-24.2271875 39.77757812 -25.454375 39.36765625 -26.71875 38.9453125 C-29.42647238 38.16523058 -31.7234861 37.80811469 -34.5 37.5625 C-39.78376752 35.20367521 -41.46883519 30.45572048 -43.75 25.3828125 C-45 22 -45 22 -45 18 C-44.28569824 17.70343506 -43.57139648 17.40687012 -42.83544922 17.10131836 C-24.94618168 9.74225089 -24.94618168 9.74225089 -7.63671875 1.14453125 C-4.71957733 -0.12172421 -3.13632163 -0.49884801 0 0 Z " fill="#F9A44C" transform="translate(426,583)"/>
<path d="M0 0 C0.804375 0.27263672 0.804375 0.27263672 1.625 0.55078125 C14.3987925 4.64763904 26.83363169 6.37059305 40.19824219 6.53369141 C46.29119341 6.67059915 51.33792689 7.73620919 57 10 C53.50647738 18.02743598 44.79575415 22.689842 37.625 27.125 C36.83867188 27.62386719 36.05234375 28.12273437 35.2421875 28.63671875 C31.12300856 31.21457093 26.93993501 33.64938684 22.6484375 35.9296875 C21.45613525 36.56366455 21.45613525 36.56366455 20.23974609 37.21044922 C17.65090331 38.12306286 16.52004949 38.01421608 14 37 C4.19165949 27.16713864 1.1140181 13.36821716 0 0 Z " fill="#F9A54C" transform="translate(481,247)"/>
<path d="M0 0 C3.78171013 2.03630545 7.09528802 4.08475871 9 8 C9.78135113 12.05671193 9.89812436 15.47770745 7.7578125 19.10546875 C4.36241818 23.2019022 2.15998528 24.7962278 -3.3125 25.3125 C-8.63683069 24.86128553 -11.44759882 22.75271101 -14.9375 18.8125 C-16.49386332 14.69271475 -16.13317978 11.2187977 -15 7 C-11.1547765 0.76808606 -7.22391707 -0.74730177 0 0 Z " fill="#F5EDD7" transform="translate(394,145)"/>
<path d="M0 0 C-3.40934385 2.2728959 -6.94820023 3.98662154 -10.625 5.78125 C-13.16445403 7.02756402 -13.16445403 7.02756402 -16 9 C-16 8.01 -16 7.02 -16 6 C-10.91657176 2.09876438 -6.4733428 -0.3699053 0 0 Z " fill="#223745" transform="translate(370,124)"/>
<path d="M0 0 C0.53625 0.680625 1.0725 1.36125 1.625 2.0625 C4.35076561 5.43384168 7.16483178 8.72065543 10 12 C9.01 12 8.02 12 7 12 C5.17578125 10.13671875 5.17578125 10.13671875 3.3125 7.6875 C2.68988281 6.88699219 2.06726563 6.08648437 1.42578125 5.26171875 C0 3 0 3 0 0 Z " fill="#E5E3D4" transform="translate(340,187)"/>
<path d="M0 0 C0.66 0.33 1.32 0.66 2 1 C0.35 2.65 -1.3 4.3 -3 6 C-3.99 5.67 -4.98 5.34 -6 5 C-4.02 3.35 -2.04 1.7 0 0 Z " fill="#8FBF75" transform="translate(186,302)"/>
<path d="M0 0 C2.31 0.66 4.62 1.32 7 2 C7 2.33 7 2.66 7 3 C5.35 3 3.7 3 2 3 C1.67 3.99 1.34 4.98 1 6 C0.67 4.02 0.34 2.04 0 0 Z " fill="#F0AC4A" transform="translate(481,247)"/>
</svg>
